<?xml version="1.0" standalone="no"?>
<!DOCTYPE svg PUBLIC "-//W3C//DTD SVG 20010904//EN"
 "http://www.w3.org/TR/2001/REC-SVG-20010904/DTD/svg10.dtd">
<svg version="1.0" xmlns="http://www.w3.org/2000/svg"
 width="590.000000pt" height="431.000000pt" viewBox="0 0 590.000000 431.000000"
 preserveAspectRatio="xMidYMid meet">

<g transform="translate(0.000000,431.000000) scale(0.100000,-0.100000)"
fill="#000000" stroke="none">
<path d="M3105 3960 c-121 -37 -384 -118 -585 -180 -978 -299 -1697 -527
-1706 -541 -3 -5 -9 -49 -14 -99 -8 -68 -6 -109 5 -172 8 -46 15 -96 15 -113
0 -46 55 -155 78 -155 10 0 29 -11 42 -25 12 -13 45 -32 71 -40 27 -9 51 -20
53 -24 3 -4 -66 -20 -152 -35 -219 -39 -271 -55 -279 -85 -10 -40 4 -205 21
-246 9 -21 14 -47 10 -58 -3 -11 -2 -22 3 -26 6 -3 23 -26 39 -50 16 -24 34
-50 39 -58 14 -19 3 -25 -147 -68 -110 -32 -131 -42 -139 -62 -11 -28 -12
-114 -3 -201 6 -57 10 -63 45 -88 22 -15 39 -32 39 -39 0 -7 -40 -29 -90 -49
-87 -37 -90 -39 -90 -70 0 -44 21 -148 33 -163 5 -7 17 -13 27 -13 10 0 37
-11 61 -24 24 -14 148 -72 274 -129 208 -94 877 -402 1065 -490 41 -19 119
-56 174 -81 54 -25 103 -46 108 -46 5 0 26 -11 46 -25 20 -14 42 -25 48 -25 6
0 157 -66 335 -146 177 -80 330 -143 340 -141 18 5 189 105 1409 822 729 428
1236 729 1249 741 19 18 1 39 -45 54 -30 10 -38 9 -54 -5 -14 -12 -23 -14 -37
-7 -16 9 -15 11 10 23 15 7 27 18 27 25 0 7 22 25 49 39 51 28 71 60 42 68
-175 50 -607 184 -638 199 -24 11 -50 18 -58 14 -8 -3 -15 -1 -15 3 0 12 29
23 41 15 5 -3 9 0 9 5 0 6 -12 11 -27 11 -25 1 -26 2 -10 11 10 6 21 8 24 5 4
-3 11 -1 18 4 6 5 55 15 109 21 53 7 104 18 114 25 15 11 13 15 -23 47 -35 32
-41 34 -47 18 -7 -21 36 -14 -538 -86 -789 -99 -975 -118 -940 -95 10 7 11 10
3 11 -24 3 -28 4 -57 24 -25 17 -27 20 -11 31 15 11 15 13 -2 16 -14 3 -11 7
15 18 33 15 42 30 20 30 -7 1 -1 8 15 16 15 8 27 19 27 24 0 6 9 10 19 10 11
0 21 4 23 10 2 5 39 17 83 25 74 14 516 76 645 90 30 4 102 13 160 21 157 21
326 42 405 49 39 3 81 9 95 12 14 3 30 5 37 4 6 -1 14 3 18 9 3 5 19 10 36 10
18 0 29 5 29 14 0 7 -66 68 -147 134 -214 174 -219 179 -208 190 6 6 75 38
155 72 161 69 171 75 163 95 -11 29 -65 28 -129 -3 -56 -28 -323 -141 -514
-219 -47 -19 -125 -52 -175 -73 -49 -21 -301 -127 -560 -235 -258 -109 -504
-212 -546 -230 -130 -57 -505 -205 -518 -205 -15 0 -146 46 -266 94 -49 19
-191 74 -315 121 -124 47 -241 94 -261 105 -20 11 -44 20 -52 20 -8 0 -174 64
-368 141 -221 89 -367 142 -391 143 -27 0 -40 6 -44 18 -3 10 -8 18 -12 18 -4
0 -7 10 -8 23 0 12 -8 70 -17 128 -22 138 -22 232 -1 253 21 22 59 20 130 -5
32 -11 127 -44 209 -74 83 -29 249 -87 370 -130 635 -224 975 -335 992 -325
21 12 140 58 793 307 537 204 509 194 950 364 173 66 404 155 514 197 175 67
220 91 204 108 -3 2 -112 29 -244 60 -423 98 -796 191 -1209 304 -99 27 -191
48 -205 47 -14 0 -34 2 -45 5 -12 4 -110 -21 -240 -62z m-2215 -1180 c0 -5 -2
-10 -4 -10 -3 0 -8 5 -11 10 -3 6 -1 10 4 10 6 0 11 -4 11 -10z m30 -51 c0 -6
-4 -7 -10 -4 -5 3 -10 11 -10 16 0 6 5 7 10 4 6 -3 10 -11 10 -16z m220 -149
c13 -8 13 -10 -2 -10 -9 0 -20 5 -23 10 -8 13 5 13 25 0z m-413 -94 c0 -8 -6
-12 -14 -9 -7 3 -13 9 -13 14 0 5 6 9 13 9 8 0 14 -6 14 -14z m593 5 c0 -5 25
-17 55 -26 30 -8 55 -20 55 -26 0 -6 4 -8 8 -5 5 3 31 -6 58 -19 27 -14 56
-25 65 -25 30 0 103 -31 112 -46 4 -8 12 -12 17 -9 5 3 20 0 32 -7 13 -7 29
-11 37 -9 8 1 17 -1 20 -6 3 -5 41 -19 84 -33 42 -13 77 -27 77 -32 0 -4 15
-8 33 -9 58 -1 0 -16 -113 -28 -267 -29 -366 -44 -378 -55 -11 -11 -8 -14 17
-19 18 -4 31 -13 31 -21 0 -8 3 -17 8 -19 4 -3 66 1 137 9 72 7 195 17 274 20
128 6 144 5 153 -9 5 -10 16 -17 23 -17 8 0 15 -9 15 -20 0 -11 5 -20 11 -20
5 0 7 -4 4 -10 -3 -5 -1 -10 5 -10 6 0 9 -4 6 -9 -3 -5 1 -12 10 -15 8 -3 13
-10 10 -15 -4 -5 2 -11 11 -13 26 -6 -35 -14 -370 -52 -166 -18 -303 -38 -310
-45 -8 -8 0 -10 36 -5 33 5 47 3 47 -5 0 -12 48 -10 118 5 12 2 22 0 22 -4 0
-13 -133 -22 -147 -11 -26 22 -113 -18 -113 -52 0 -18 4 -20 33 -15 40 7 521
63 637 74 83 7 170 -4 154 -21 -4 -4 7 -7 24 -7 18 0 32 -4 32 -10 0 -5 9 -10
19 -10 25 0 35 -27 13 -33 -11 -3 -9 -5 8 -7 38 -2 -40 -25 -208 -60 -79 -16
-185 -41 -235 -54 -86 -22 -238 -56 -315 -71 -37 -8 -38 -24 -3 -36 13 -5 20
-5 16 0 -6 11 35 25 115 41 136 26 143 23 20 -9 -97 -25 -60 -27 45 -2 191 45
197 35 8 -14 -155 -40 -147 -44 18 -9 66 14 123 24 125 21 3 -3 -12 -8 -34
-12 -58 -9 -160 -44 -137 -46 11 0 -2 -7 -30 -14 -99 -25 -137 -36 -132 -41 4
-4 230 41 352 71 33 8 101 23 150 34 384 82 844 184 1020 226 83 20 170 40
195 45 25 5 119 25 210 45 263 57 363 76 373 72 6 -2 -47 -16 -117 -32 -97
-23 -122 -32 -105 -37 17 -5 13 -6 -11 -3 -19 3 -48 0 -65 -5 -29 -10 -29 -10
-3 -6 15 2 25 -1 22 -6 -4 -5 -29 -7 -58 -4 -40 4 -45 3 -21 -4 26 -8 25 -9
-14 -5 -26 2 -98 -8 -175 -25 -72 -16 -225 -50 -341 -75 -115 -25 -228 -50
-250 -55 -22 -5 -103 -23 -180 -40 -77 -17 -205 -47 -285 -66 -80 -20 -194
-46 -255 -60 -60 -13 -135 -31 -165 -39 l-55 -14 45 4 c28 2 7 -6 -58 -22 -56
-14 -101 -28 -98 -30 5 -5 174 31 436 92 80 19 201 46 270 60 260 54 370 79
530 117 91 21 206 48 255 58 50 11 137 31 195 44 384 87 685 149 701 144 14
-5 -426 -108 -711 -167 -289 -60 -780 -170 -1055 -236 -77 -18 -192 -45 -255
-59 -261 -57 -399 -90 -395 -94 2 -2 36 3 77 12 249 53 325 70 523 114 121 27
319 71 440 97 121 26 243 53 270 61 63 17 855 194 1098 245 54 11 102 19 108
17 17 -6 -435 -113 -811 -193 -267 -57 -472 -103 -895 -200 -181 -42 -422 -96
-535 -121 -187 -42 -233 -54 -202 -54 10 0 303 64 527 116 61 13 193 42 295
64 102 22 255 55 340 75 722 168 1254 285 1405 309 179 29 -555 -149 -965
-234 -186 -38 -507 -111 -1085 -245 -55 -13 -199 -45 -320 -72 -121 -26 -213
-49 -204 -51 14 -3 898 192 1539 338 527 121 885 200 900 199 31 -1 -382 -99
-945 -224 -165 -37 -336 -75 -380 -85 -144 -33 -298 -74 -287 -78 5 -1 167 34
359 79 191 44 386 89 433 99 47 10 144 33 215 50 72 17 148 35 170 39 22 5
132 29 245 54 113 25 288 64 390 86 102 23 217 49 255 60 132 36 124 34 93 17
-23 -14 -469 -129 -813 -210 -60 -14 -166 -39 -235 -55 -69 -16 -186 -44 -260
-60 -290 -66 -418 -97 -764 -182 -198 -49 -362 -91 -364 -94 -10 -10 33 -5 88
10 30 8 60 15 65 14 22 -1 -39 -19 -186 -54 -85 -21 -259 -64 -387 -96 -128
-33 -241 -59 -252 -59 -11 0 -20 -5 -20 -11 0 -5 -4 -8 -9 -5 -8 5 -26 -23
-19 -29 2 -2 111 -71 243 -155 132 -84 263 -167 290 -185 90 -58 74 -59 255
11 91 35 341 129 555 209 215 81 435 164 490 185 55 20 145 54 200 75 55 20
177 66 270 102 94 36 262 99 375 140 113 41 322 118 465 170 143 52 303 110
355 128 52 18 103 37 113 40 14 6 17 2 17 -26 0 -19 -5 -52 -10 -74 -10 -45
-6 -54 18 -38 62 43 105 62 121 54 18 -11 21 -9 -53 -31 -29 -9 -35 -15 -25
-22 10 -6 7 -7 -10 -3 -17 5 -22 4 -16 -5 5 -9 4 -11 -3 -6 -7 4 -12 3 -12 -3
0 -6 -6 -8 -14 -5 -8 3 -25 -1 -38 -9 -36 -23 -158 -70 -1098 -424 -450 -170
-628 -235 -647 -236 -7 0 -13 -4 -13 -9 0 -4 -9 -8 -21 -8 -11 0 -40 -9 -65
-20 -79 -36 -94 -41 -95 -27 0 9 -2 9 -6 -1 -2 -6 -16 -12 -29 -12 -13 0 -24
-4 -24 -9 0 -5 -18 -11 -40 -15 -23 -3 -39 -10 -36 -14 2 -4 -14 -8 -35 -9
-21 -2 -67 -16 -101 -32 -68 -31 -123 -49 -99 -33 11 8 8 10 -12 9 -14 -1 -25
-6 -24 -11 1 -6 -7 -11 -18 -13 -16 -3 -17 -2 -5 6 22 16 2 13 -28 -3 -15 -8
-48 -22 -75 -31 -28 -10 -44 -21 -41 -27 5 -7 -3 -9 -22 -4 -19 4 -24 3 -15
-2 16 -12 -3 -27 -21 -16 -7 4 -8 3 -4 -4 4 -7 1 -12 -6 -12 -7 0 -37 -15 -68
-34 -30 -19 -118 -57 -195 -86 -77 -29 -145 -57 -152 -62 -12 -9 -127 66 -963
632 -598 405 -705 476 -723 483 -14 5 -17 19 -17 82 0 57 4 77 15 81 8 3 44
-14 81 -38 145 -93 257 -165 331 -212 43 -28 137 -88 208 -134 228 -148 390
-252 415 -267 8 -4 -26 34 -75 86 -50 52 -121 128 -159 169 -37 41 -170 180
-294 309 -125 128 -228 239 -230 247 -2 7 8 16 23 20 l26 6 -53 57 c-29 31
-60 59 -69 63 -11 4 -18 26 -22 75 -9 86 -9 213 -1 213 3 0 24 -14 45 -31 27
-21 39 -26 39 -16 0 11 24 18 98 27 116 15 144 12 156 -16 10 -21 66 -62 66
-48 0 4 8 0 18 -8 9 -9 32 -19 50 -23 18 -4 30 -11 26 -16 -3 -5 1 -9 8 -9 24
0 53 -54 228 -423 10 -21 21 -34 24 -28 5 8 -53 139 -105 234 -5 10 -7 22 -4
27 4 6 1 10 -5 10 -7 0 -9 8 -5 20 4 14 2 20 -6 18 -7 -2 -19 9 -28 24 -13 22
-13 30 -3 40 11 11 12 10 7 -4 -5 -11 -2 -18 5 -18 16 0 9 36 -26 131 -27 73
-28 77 -10 94 11 12 16 28 14 47 -3 15 -1 28 4 28 4 0 8 -4 8 -9z m3533 -228
c-7 -2 -19 -2 -25 0 -7 3 -2 5 12 5 14 0 19 -2 13 -5z m-128 -13 c3 -6 -1 -7
-9 -4 -18 7 -21 14 -7 14 6 0 13 -4 16 -10z m-45 -10 c0 -12 -8 -12 -35 0 -18
8 -17 9 8 9 15 1 27 -3 27 -9z m120 -40 c0 -5 -5 -10 -11 -10 -5 0 -7 5 -4 10
3 6 8 10 11 10 2 0 4 -4 4 -10z m55 -70 c3 -5 1 -10 -4 -10 -6 0 -11 5 -11 10
0 6 2 10 4 10 3 0 8 -4 11 -10z m-40 -10 c-27 -12 -43 -12 -25 0 8 5 22 9 30
9 10 0 8 -3 -5 -9z m45 -20 c0 -5 -7 -10 -16 -10 -8 0 -12 5 -9 10 3 6 10 10
16 10 5 0 9 -4 9 -10z m-55 -9 c-13 -11 -74 -31 -94 -30 -9 1 9 9 39 19 68 22
66 22 55 11z m15 -35 c-41 -15 -106 -29 -98 -21 8 9 91 33 113 33 12 0 5 -5
-15 -12z m25 -46 c-3 -5 -12 -10 -18 -10 -7 0 -6 4 3 10 19 12 23 12 15 0z
m-970 -19 c-34 -14 -407 -92 -419 -88 -10 3 94 29 324 80 36 8 76 15 90 15 23
1 23 0 5 -7z m-150 -6 c-25 -9 -209 -44 -213 -41 -2 2 32 12 75 21 43 9 83 18
88 20 14 5 63 4 50 0z m272 -1 c-3 -3 -12 -4 -19 -1 -8 3 -5 6 6 6 11 1 17 -2
13 -5z m-542 -54 c-11 -5 -27 -9 -35 -9 -9 0 -8 4 5 9 11 5 27 9 35 9 9 0 8
-4 -5 -9z m958 -7 c-7 -2 -19 -2 -25 0 -7 3 -2 5 12 5 14 0 19 -2 13 -5z
m-620 -10 c-7 -2 -19 -2 -25 0 -7 3 -2 5 12 5 14 0 19 -2 13 -5z m574 1 c-3
-3 -12 -4 -19 -1 -8 3 -5 6 6 6 11 1 17 -2 13 -5z m-62 -14 c-11 -5 -27 -9
-35 -9 -9 0 -8 4 5 9 11 5 27 9 35 9 9 0 8 -4 -5 -9z m-765 -40 c-8 -5 -22
-10 -30 -10 -13 0 -13 1 0 10 8 5 22 10 30 10 13 0 13 -1 0 -10z m-453 -16
c-3 -3 -12 -4 -19 -1 -8 3 -5 6 6 6 11 1 17 -2 13 -5z m378 -4 c-16 -4 -39 -8
-50 -8 -16 0 -15 2 5 8 14 4 36 8 50 8 22 0 22 -1 -5 -8z m335 -134 c0 -2 -9
-6 -20 -9 -11 -3 -20 -1 -20 4 0 5 9 9 20 9 11 0 20 -2 20 -4z m-1710 -86 c-8
-5 -22 -9 -30 -9 -10 0 -8 3 5 9 27 12 43 12 25 0z m-57 -17 c-7 -2 -19 -2
-25 0 -7 3 -2 5 12 5 14 0 19 -2 13 -5z m-98 -43 c-11 -5 -29 -8 -40 -8 -16 0
-15 2 5 8 34 11 60 11 35 0z m-68 -16 c-3 -3 -12 -4 -19 -1 -8 3 -5 6 6 6 11
1 17 -2 13 -5z m130 -30 c-3 -3 -12 -4 -19 -1 -8 3 -5 6 6 6 11 1 17 -2 13 -5z
m-1546 -153 c5 9 9 10 9 2 0 -13 -19 -28 -26 -21 -2 3 -6 20 -9 39 l-5 34 11
-34 c8 -27 13 -31 20 -20z m114 -10 c-3 -5 4 -13 16 -16 11 -4 18 -9 16 -11
-2 -3 -16 1 -31 7 -19 9 -23 15 -14 21 17 10 20 10 13 -1z m115 -36 c28 -14
50 -27 50 -30 0 -4 -111 43 -119 51 -13 13 26 1 69 -21z m20 -35 c19 -11 31
-19 25 -19 -5 0 -26 8 -45 19 -19 11 -30 19 -25 19 6 0 26 -8 45 -19z m125
-31 c39 -19 36 -20 -15 -4 -23 7 -24 6 -11 -9 13 -16 12 -16 -14 -4 -23 10
-25 14 -10 16 14 3 15 6 4 13 -25 16 5 8 46 -12z m59 -51 c-3 -4 -11 -5 -19
-2 -11 5 -12 9 -2 19 12 13 31 -1 21 -17z m31 -7 c-3 -5 4 -13 16 -16 11 -4
18 -9 16 -11 -2 -3 -16 1 -31 7 -19 9 -23 15 -14 21 17 10 20 10 13 -1z m130
-42 c52 -25 55 -29 25 -24 -34 6 -35 5 -10 -8 14 -8 36 -18 50 -22 23 -7 24
-7 10 10 -8 11 -10 16 -5 14 6 -3 28 -14 50 -24 110 -50 178 -85 167 -85 -7 0
-31 9 -53 21 -46 23 -66 19 -22 -5 15 -8 25 -15 20 -16 -16 0 -77 38 -66 42 7
2 -4 12 -25 22 -21 10 -44 15 -52 12 -22 -8 -119 35 -102 45 9 6 1 13 -25 24
-20 8 -37 17 -37 20 0 9 15 4 75 -26z m-40 -9 c3 -6 -1 -7 -9 -4 -18 7 -21 14
-7 14 6 0 13 -4 16 -10z m171 -75 c10 -8 14 -15 8 -15 -5 0 -19 7 -30 15 -10
8 -14 15 -8 15 5 0 19 -7 30 -15z m2080 -494 c-6 -9 -147 -93 -271 -161 -35
-20 -78 -46 -95 -58 -16 -12 -30 -18 -30 -13 0 10 85 69 120 84 8 3 71 40 140
80 123 74 146 85 136 68z m-481 -229 c-3 -3 -11 0 -18 7 -9 10 -8 11 6 5 10
-3 15 -9 12 -12z m88 -29 c-7 -2 -19 -2 -25 0 -7 3 -2 5 12 5 14 0 19 -2 13
-5z"/>
<path d="M1600 2366 c0 -2 7 -7 16 -10 8 -3 12 -2 9 4 -6 10 -25 14 -25 6z"/>
<path d="M1346 2183 c-6 -14 -5 -15 5 -6 7 7 10 15 7 18 -3 3 -9 -2 -12 -12z"/>
<path d="M1371 2160 c0 -8 6 -24 14 -34 19 -25 19 -9 0 24 -8 14 -14 19 -14
10z"/>
<path d="M1678 1573 c7 -3 16 -2 19 1 4 3 -2 6 -13 5 -11 0 -14 -3 -6 -6z"/>
<path d="M1688 1543 c7 -3 16 -2 19 1 4 3 -2 6 -13 5 -11 0 -14 -3 -6 -6z"/>
<path d="M1848 1493 c7 -3 16 -2 19 1 4 3 -2 6 -13 5 -11 0 -14 -3 -6 -6z"/>
<path d="M2588 1493 c7 -3 16 -2 19 1 4 3 -2 6 -13 5 -11 0 -14 -3 -6 -6z"/>
<path d="M2533 1483 c9 -2 23 -2 30 0 6 3 -1 5 -18 5 -16 0 -22 -2 -12 -5z"/>
<path d="M2448 1463 c7 -3 16 -2 19 1 4 3 -2 6 -13 5 -11 0 -14 -3 -6 -6z"/>
<path d="M1758 1383 c6 -2 18 -2 25 0 6 3 1 5 -13 5 -14 0 -19 -2 -12 -5z"/>
<path d="M1718 1373 c7 -3 16 -2 19 1 4 3 -2 6 -13 5 -11 0 -14 -3 -6 -6z"/>
<path d="M2270 1373 c-14 -3 -29 -9 -34 -14 -14 -12 -1 -11 59 5 47 13 31 19
-25 9z"/>
<path d="M2100 1329 c-110 -30 -78 -30 50 0 41 9 70 19 65 22 -6 3 -57 -7
-115 -22z"/>
<path d="M1720 1340 c-20 -6 -21 -8 -5 -8 11 0 31 4 45 8 20 6 21 8 5 8 -11 0
-31 -4 -45 -8z"/>
<path d="M1905 1285 c-27 -7 -41 -13 -30 -14 11 0 43 6 70 13 63 18 28 19 -40
1z"/>
<path d="M1828 1263 c7 -3 16 -2 19 1 4 3 -2 6 -13 5 -11 0 -14 -3 -6 -6z"/>
<path d="M1735 1245 l-50 -14 45 6 c25 3 54 9 65 14 31 12 -4 9 -60 -6z"/>
</g>
</svg>
